<svg width="274" height="164" viewBox="0 0 274 164" fill="none" xmlns="http://www.w3.org/2000/svg">
<rect x="1.22656" y="0.803223" width="272" height="162" fill="white"/>
<path d="M96.4506 48.4472C94.7972 48.4472 93.4906 47.9246 92.5306 46.8792C91.5812 45.8339 91.1066 44.4259 91.1066 42.6552V42.5272C91.1066 40.8312 91.6132 39.4339 92.6266 38.3352C93.6399 37.2366 94.9252 36.6872 96.4826 36.6872C97.7306 36.6872 98.7866 37.0126 99.6506 37.6632C100.515 38.3139 101.005 39.2366 101.123 40.4312H99.7466C99.4586 38.6712 98.3759 37.7912 96.4986 37.7912C95.3146 37.7912 94.3599 38.2232 93.6346 39.0872C92.9092 39.9406 92.5466 41.0819 92.5466 42.5112V42.6392C92.5466 44.1006 92.8932 45.2472 93.5866 46.0792C94.2906 46.9006 95.2559 47.3112 96.4826 47.3112C97.4319 47.3112 98.2106 47.0766 98.8186 46.6072C99.4266 46.1272 99.7999 45.4286 99.9386 44.5112H101.235C101.043 45.8019 100.525 46.7832 99.6826 47.4552C98.8399 48.1166 97.7626 48.4472 96.4506 48.4472ZM103.39 48.3032V35.9352H104.734V48.3032H103.39ZM107.584 48.3032V39.9352H108.912V48.3032H107.584ZM108.832 37.9352C108.661 38.1059 108.458 38.1912 108.224 38.1912C107.989 38.1912 107.781 38.1059 107.6 37.9352C107.429 37.7646 107.344 37.5566 107.344 37.3112C107.344 37.0659 107.429 36.8579 107.6 36.6872C107.781 36.5166 107.989 36.4312 108.224 36.4312C108.458 36.4312 108.661 36.5166 108.832 36.6872C109.013 36.8579 109.104 37.0659 109.104 37.3112C109.104 37.5566 109.013 37.7646 108.832 37.9352ZM115.154 48.4472C113.959 48.4472 112.983 48.0632 112.226 47.2952C111.479 46.5166 111.106 45.4872 111.106 44.2072V44.0792C111.106 42.8206 111.469 41.7912 112.194 40.9912C112.93 40.1912 113.874 39.7912 115.026 39.7912C116.093 39.7912 116.983 40.1379 117.698 40.8312C118.423 41.5139 118.786 42.5539 118.786 43.9512V44.3832H112.482C112.514 45.3432 112.754 46.0792 113.202 46.5912C113.661 47.0926 114.317 47.3432 115.17 47.3432C116.482 47.3432 117.223 46.8579 117.394 45.8872H118.722C118.583 46.7086 118.194 47.3432 117.554 47.7912C116.914 48.2286 116.114 48.4472 115.154 48.4472ZM112.53 43.3112H117.426C117.309 41.7006 116.509 40.8952 115.026 40.8952C114.354 40.8952 113.799 41.1139 113.362 41.5512C112.925 41.9779 112.647 42.5646 112.53 43.3112ZM120.924 48.3032V39.9352H122.252V41.2632C122.454 40.8366 122.79 40.4846 123.26 40.2072C123.729 39.9299 124.289 39.7912 124.94 39.7912C125.857 39.7912 126.577 40.0632 127.1 40.6072C127.622 41.1512 127.884 42.0046 127.884 43.1672V48.3032H126.556V43.0712C126.556 42.3352 126.396 41.7966 126.076 41.4552C125.756 41.1139 125.26 40.9432 124.588 40.9432C123.937 40.9432 123.382 41.1459 122.924 41.5512C122.476 41.9566 122.252 42.5166 122.252 43.2312V48.3032H120.924ZM133.13 48.4152C132.394 48.4152 131.834 48.2179 131.45 47.8232C131.066 47.4286 130.874 46.8899 130.874 46.2072V41.0552H129.674V39.9352H130.874V38.0312H132.202V39.9352H134.154V41.0552H132.202V46.0792C132.202 46.8899 132.549 47.2952 133.242 47.2952C133.626 47.2952 133.968 47.2366 134.266 47.1192V48.2392C133.936 48.3566 133.557 48.4152 133.13 48.4152ZM140.804 48.3032V36.8632H142.612L148.18 46.3192V36.8632H149.508V48.3032H147.908L142.132 38.4952V48.3032H140.804ZM154.482 48.4472C153.661 48.4472 152.989 48.2446 152.466 47.8392C151.954 47.4232 151.698 46.8046 151.698 45.9832C151.698 45.0872 152.093 44.4312 152.882 44.0152C153.682 43.5992 154.685 43.3912 155.89 43.3912H157.09V42.7832C157.09 42.1112 156.952 41.6312 156.674 41.3432C156.397 41.0446 155.938 40.8952 155.298 40.8952C154.146 40.8952 153.506 41.3966 153.378 42.3992H152.05C152.136 41.5032 152.488 40.8472 153.106 40.4312C153.725 40.0046 154.477 39.7912 155.362 39.7912C157.4 39.7912 158.418 40.7886 158.418 42.7832V48.3032H157.09V47.2472C156.45 48.0472 155.581 48.4472 154.482 48.4472ZM154.61 47.3912C155.336 47.3912 155.928 47.2152 156.386 46.8632C156.856 46.5006 157.09 46.0046 157.09 45.3752V44.3352H155.938C153.997 44.3352 153.026 44.8846 153.026 45.9832C153.026 46.9219 153.554 47.3912 154.61 47.3912ZM161.127 48.3032V39.9352H162.455V41.2152C162.657 40.7992 162.977 40.4579 163.415 40.1912C163.863 39.9246 164.375 39.7912 164.951 39.7912C166.177 39.7912 166.993 40.3139 167.399 41.3592C167.665 40.8472 168.065 40.4579 168.599 40.1912C169.143 39.9246 169.697 39.7912 170.263 39.7912C171.084 39.7912 171.756 40.0632 172.279 40.6072C172.812 41.1406 173.079 41.9779 173.079 43.1192V48.3032H171.751V43.0232C171.751 41.6366 171.159 40.9432 169.975 40.9432C169.377 40.9432 168.86 41.1406 168.423 41.5352C167.985 41.9299 167.767 42.4792 167.767 43.1832V48.3032H166.439V43.0232C166.439 41.6366 165.847 40.9432 164.663 40.9432C164.065 40.9432 163.548 41.1406 163.111 41.5352C162.673 41.9299 162.455 42.4792 162.455 43.1832V48.3032H161.127ZM179.213 48.4472C178.019 48.4472 177.043 48.0632 176.285 47.2952C175.539 46.5166 175.165 45.4872 175.165 44.2072V44.0792C175.165 42.8206 175.528 41.7912 176.253 40.9912C176.989 40.1912 177.933 39.7912 179.085 39.7912C180.152 39.7912 181.043 40.1379 181.757 40.8312C182.483 41.5139 182.845 42.5539 182.845 43.9512V44.3832H176.541C176.573 45.3432 176.813 46.0792 177.261 46.5912C177.72 47.0926 178.376 47.3432 179.229 47.3432C180.541 47.3432 181.283 46.8579 181.453 45.8872H182.781C182.643 46.7086 182.253 47.3432 181.613 47.7912C180.973 48.2286 180.173 48.4472 179.213 48.4472ZM176.589 43.3112H181.485C181.368 41.7006 180.568 40.8952 179.085 40.8952C178.413 40.8952 177.859 41.1139 177.421 41.5512C176.984 41.9779 176.707 42.5646 176.589 43.3112Z" fill="#374754"/>
<g clip-path="url(#clip0_66_4714)">
<path d="M227.716 107.805L233.07 111.356C231.332 113.902 227.176 118.271 219.99 118.271C211.067 118.271 204.422 111.403 204.422 102.666C204.422 93.3685 211.138 87.061 219.239 87.061C227.387 87.061 231.379 93.5084 232.671 96.9892L233.375 98.7648L212.382 107.408C213.979 110.539 216.468 112.127 219.99 112.127C223.513 112.127 225.955 110.398 227.716 107.805ZM211.255 102.176L225.274 96.382C224.499 94.4433 222.198 93.0652 219.45 93.0652C215.952 93.0652 211.091 96.1488 211.255 102.176Z" fill="#FF302F"/>
<path d="M194.301 71.1525H201.063V116.846H194.301V71.1521V71.1525Z" fill="#20B15A"/>
<path d="M183.639 88.2755H190.167V116.028C190.167 127.545 183.334 132.287 175.256 132.287C167.648 132.287 163.069 127.194 161.354 123.06L167.342 120.583C168.422 123.129 171.029 126.143 175.256 126.143C180.445 126.143 183.639 122.943 183.639 116.963V114.72H183.404C181.854 116.589 178.896 118.271 175.138 118.271C167.295 118.271 160.109 111.473 160.109 102.713C160.109 93.9053 167.295 87.0376 175.138 87.0376C178.872 87.0376 181.854 88.6962 183.404 90.5183H183.639V88.2758V88.2755ZM184.108 102.713C184.108 97.1993 180.422 93.1812 175.725 93.1812C170.982 93.1812 166.99 97.1993 166.99 102.713C166.99 108.155 170.982 112.103 175.725 112.103C180.422 112.127 184.109 108.155 184.109 102.713H184.108Z" fill="#3686F7"/>
<path d="M122.986 102.596C122.986 111.59 115.941 118.201 107.299 118.201C98.6582 118.201 91.6133 111.566 91.6133 102.596C91.6133 93.5551 98.6582 86.9675 107.299 86.9675C115.941 86.9675 122.986 93.5551 122.986 102.596ZM116.129 102.596C116.129 96.9894 112.043 93.1344 107.299 93.1344C102.556 93.1344 98.4701 96.9894 98.4701 102.596C98.4701 108.155 102.556 112.057 107.299 112.057C112.043 112.057 116.129 108.155 116.129 102.596Z" fill="#FF302F"/>
<path d="M157.243 102.666C157.243 111.66 150.199 118.271 141.557 118.271C132.916 118.271 125.871 111.66 125.871 102.666C125.871 93.6254 132.916 87.061 141.557 87.061C150.199 87.061 157.243 93.6022 157.243 102.666ZM150.363 102.666C150.363 97.0597 146.277 93.2047 141.533 93.2047C136.79 93.2047 132.704 97.0597 132.704 102.666C132.704 108.226 136.79 112.127 141.533 112.127C146.3 112.127 150.363 108.202 150.363 102.666Z" fill="#FFBA40"/>
<path d="M65.8287 111.426C55.9894 111.426 48.2875 103.53 48.2875 93.7419C48.2875 83.954 55.9894 76.058 65.8287 76.058C71.1358 76.058 75.0101 78.137 77.875 80.8003L82.5952 76.1049C78.6032 72.2972 73.2727 69.3999 65.8287 69.3999C52.35 69.4003 41.0078 80.3334 41.0078 93.7419C41.0078 107.151 52.35 118.084 65.8287 118.084C73.1084 118.084 78.6032 115.701 82.9005 111.263C87.315 106.871 88.6769 100.703 88.6769 95.7043C88.6769 94.139 88.4892 92.5273 88.2777 91.3359H65.8287V97.8302H81.8202C81.3505 101.895 80.059 104.675 78.1569 106.567C75.8556 108.88 72.2161 111.426 65.8287 111.426Z" fill="#3686F7"/>
</g>
<rect x="1.22656" y="0.803223" width="272" height="162" stroke="#D8D8D8"/>
<defs>
<clipPath id="clip0_66_4714">
<rect width="193" height="63" fill="white" transform="translate(40.7266 69.3032)"/>
</clipPath>
</defs>
</svg>
